/* XPM */
static char *result[] = {
/* columns rows colors chars-per-pixel */
"32 32 219 2 ",
"   c #1F2B31",
".  c #1F2B32",
"X  c #1F2C32",
"o  c #1F2C33",
"O  c #1A3033",
"+  c #1D3035",
"@  c #202D34",
"#  c #202E35",
"$  c #202E36",
"%  c #202F36",
"&  c #202F37",
"*  c #213038",
"=  c #213039",
"-  c #213139",
";  c #223038",
":  c #23303A",
">  c #22323B",
",  c #24303A",
"<  c #23343E",
"1  c #29303E",
"2  c #2B2F40",
"3  c #2F2F42",
"4  c #2F2F43",
"5  c #302F43",
"6  c #332F45",
"7  c #332F46",
"8  c #3E2B4A",
"9  c #3E2E4D",
"0  c #223642",
"q  c #243641",
"w  c #243843",
"e  c #253843",
"r  c #233845",
"t  c #253944",
"y  c #263B47",
"u  c #273C49",
"i  c #273D49",
"p  c #263D4A",
"a  c #273D4A",
"s  c #273E4B",
"d  c #4C2D58",
"f  c #522957",
"g  c #512D5B",
"h  c #4B315B",
"j  c #622B67",
"k  c #612C67",
"l  c #7B2A79",
"z  c #29414F",
"x  c #3F4747",
"c  c #304149",
"v  c #364348",
"b  c #2A4352",
"n  c #2A4656",
"m  c #264A58",
"M  c #29495B",
"N  c #2C4858",
"B  c #2D4B5C",
"V  c #2C4B5D",
"C  c #2D4B5D",
"Z  c #2B4D5D",
"A  c #2D4C5D",
"S  c #2D4C5E",
"D  c #2E4C5E",
"F  c #2F4E61",
"G  c #2E5369",
"H  c #315366",
"J  c #305367",
"K  c #315367",
"L  c #3D5765",
"P  c #32576C",
"I  c #33576D",
"U  c #375B6A",
"Y  c #33596F",
"T  c #2C5C74",
"R  c #2E5D75",
"E  c #2D5E76",
"W  c #345572",
"Q  c #355C74",
"!  c #356079",
"~  c #38647E",
"^  c #404747",
"/  c #414C52",
"(  c #41545F",
")  c #436375",
"_  c #396681",
"`  c #396782",
"'  c #3A6782",
"]  c #3B6A87",
"[  c #3C6C89",
"{  c #3C6D8A",
"}  c #3D6E8B",
"|  c #3D6E8C",
" . c #3E7291",
".. c #3F7291",
"X. c #3F7493",
"o. c #3B7395",
"O. c #3F7494",
"+. c #3F7495",
"@. c #3F7A9D",
"#. c #3F7A9E",
"$. c #407494",
"%. c #407594",
"&. c #427695",
"*. c #437796",
"=. c #417798",
"-. c #42799A",
";. c #427A9B",
":. c #427B9D",
">. c #437B9D",
",. c #407C9F",
"<. c #437C9E",
"1. c #437C9F",
"2. c #437DA0",
"3. c #437EA1",
"4. c #407DA2",
"5. c #437EA2",
"6. c #437FA2",
"7. c #447DA0",
"8. c #447EA0",
"9. c #447EA2",
"0. c #447FA2",
"q. c #457FA2",
"w. c #8F2888",
"e. c #8F2988",
"r. c #668C9E",
"t. c #7E9398",
"y. c #4480A4",
"u. c #4580A4",
"i. c #4681A5",
"p. c #4183AB",
"a. c #4683A8",
"s. c #4783A8",
"d. c #4684A9",
"f. c #4784A9",
"g. c #4684AA",
"h. c #4785AA",
"j. c #4285AD",
"k. c #4685AC",
"l. c #4586AE",
"z. c #4885A9",
"x. c #4E86A8",
"c. c #4887AD",
"v. c #4887AE",
"b. c #4888AF",
"n. c #5184A3",
"m. c #5489A8",
"M. c #588AA9",
"N. c #498AB2",
"B. c #4B8EB7",
"V. c #4C8FB7",
"C. c #4B8FB8",
"Z. c #4C8FB8",
"A. c #4790BD",
"S. c #4790BE",
"D. c #4B90B9",
"F. c #4B90BA",
"G. c #4C90B9",
"H. c #4C91BA",
"J. c #4D91BB",
"K. c #4F92BB",
"L. c #4A91BC",
"P. c #4D92BC",
"I. c #4D92BD",
"U. c #4D93BD",
"Y. c #4E93BE",
"T. c #4E94BF",
"R. c #5D96B6",
"E. c #5E97B7",
"W. c #5A97BC",
"Q. c #7F9AA3",
"!. c #6197B5",
"~. c #4893C2",
"^. c #4E95C0",
"/. c #4F95C1",
"(. c #5098C4",
"). c #A0A194",
"_. c #A3A294",
"`. c #A0A297",
"'. c #A8AA9F",
"]. c #AEAD9E",
"[. c #B6AE9B",
"{. c #839CA3",
"}. c #9BA9A7",
"|. c #9DA4A8",
" X c #8EABB5",
".X c #81A7BD",
"XX c #91AFB8",
"oX c #A0ABB2",
"OX c #B1B4B5",
"+X c #B2B5B7",
"@X c #CDB493",
"#X c #DFC099",
"$X c #ECC597",
"%X c #E1C098",
"&X c #E6C298",
"*X c #EBC498",
"=X c #F1C797",
"-X c #F8CD9D",
";X c #C5C0AD",
":X c #E5CBA7",
">X c #EDCAA0",
",X c #FFD9A7",
"<X c #FED6A8",
"1X c #FED7A8",
"2X c #FFD7A8",
"3X c #FFD8A9",
"4X c #FFDBAB",
"5X c #FFDCAB",
"6X c #FFDDAB",
"7X c #85AEC7",
"8X c #91B6CD",
"9X c #92B8CF",
"0X c #AEC4D2",
"qX c #B1CAD9",
"wX c #CAD4DA",
"eX c #C5D9E4",
"rX c #C6DAE6",
"tX c #E3E4E5",
"yX c None",
/* pixels */
"yXyXyXyXyXyXyXyXyXyXyXyXyXyXyXyXyXyXyXyXyXyXyXyXyXyXyXyXyXyXyXyX",
"yXyXyXyXyXyXyXyXyXyXyXyXyXyXyXyXyXyXyXyXyXyXyXyXyXyXyXyXyXyXyXyX",
"yXyXyXyXyXyXyXyXyXyXyXyXyXyXyXyXyXyXyXyXyXyXyXyXyXyXyXyXyXyXyXyX",
"yXyXyXyXyXyXyXyXyXyXyXyXyXyXyXyXyXyXyXyXyXyXyXyXyXyXyXyXyXyXyXyX",
"yXyXyXyXyXyXyXyXyXyXyXyXyXyXyXyXyXyXyXyXyXyXyXyXyXyXyXyXyXyXyXyX",
"yXyXyXyXyXyXyXyXyXyX              $ % X X X @ * yXyXyXyXyXyXyXyX",
"yXyXyXyXyXyXyXyXyXC K K K K K K K r 0 S M V z * yXyXyXyXyXyXyXyX",
"yXyXyXyXyXyXyXyXs ..T.J.J.P.P.J.V.) L &.M.x.! : 3 yXyXyXyXyXyXyX",
"yXyXyXyXyXyXyXi ;.Z.U.I.I.P.U.D.s.0X|.( wX7XR 5 l d O yXyXyXyXyX",
"yXyXyXyXyXyXyX< F <.T.P.P._ ' B.u.rX+X/ tX8XT 7 w.g O yXyXyXyXyX",
"yXyXyXyXyXyXyX< D >.T.P.P._ ' B.i.eXOX/ tX9XE 1 j 9 + yXyXyXyXyX",
"yXyXyXyXyXyXyXa f.T.P.P.P.P.P.C.u.qXoX( wX.XW 4 , * * yXyXyXyXyX",
"yXyXyXyXyXyXyXa h.^.P.P.P.P.U.Z.y.m.n.*.M.U h l 3 yXyXyXyXyXyXyX",
"yXyXyXyXyXyXyXs v.(./././.Y.U.G.y.@.,.6.#.m f e.6 yXyXyXyXyXyXyX",
"yXyXyXyXyXyXyXe ~ | { } [ f.H.b.9.1.2.3.9.Z 8 k 2 yXyXyXyXyXyXyX",
"yXyXyXyXyXyXyX* - - * > u $.B.y.y.3.2.1.X.N # ; * yXyXyXyXyXyXyX",
"yXyXyXyXyXyXyXyXyXyXyXy -.Z.J.Z.Z.d.5.O.b > & yXyXyXyXyXyXyXyXyX",
"yXyXyXyXyXyXyXyXyXyXyXp j.~.A.S.A.p.4. .t . yXyXyXyXyXyXyXyXyXyX",
"yXyXyXyXyXyXyXyXyXyXyXc Q.XX X X X{.r. .w yXyXyXyXyXyXyXyXyXyXyX",
"yXyXyXyXyXyXyXyXyXyXyXx #X4X1X1X<X*X`.%.n yXyXyXyXyXyXyXyXyXyXyX",
"yXyXyXyXyXyXyXyXyXyXyXx %X5X2X2X2X$X).0.a.H @ * yXyXyXyXyXyXyXyX",
"yXyXyXyXyXyXyXyXyXyXyX^ &X6X3X3X,X=X_.q.k.:.P = yXyXyXyXyXyXyXyX",
"yXyXyXyXyXyXyXyXyXyXyXv '.:X-X>X;X].t.7.3.=.I = yXyXyXyXyXyXyXyX",
"yXyXyXyXyXyXyXyXyXyXyXa z.}.@X[.E.l.0.<.X.B # * yXyXyXyXyXyXyXyX",
"yXyXyXyXyXyXyXyXyXyXyXa g.W.!.R.K.F.N.O.b yXyXyXyXyXyXyXyXyXyXyX",
"yXyXyXyXyXyXyXyXyXyXyXa c.L.o.G J 8.I.+.t yXyXyXyXyXyXyXyXyXyXyX",
"yXyXyXyXyXyXyXyXyXyXyXu ' ` A o   Q ] Y q yXyXyXyXyXyXyXyXyXyXyX",
"yXyXyXyXyXyXyXyXyXyXyXyX- - * * yX- - = * yXyXyXyXyXyXyXyXyXyXyX",
"yXyXyXyXyXyXyXyXyXyXyXyXyXyXyXyXyXyXyXyXyXyXyXyXyXyXyXyXyXyXyXyX",
"yXyXyXyXyXyXyXyXyXyXyXyXyXyXyXyXyXyXyXyXyXyXyXyXyXyXyXyXyXyXyXyX",
"yXyXyXyXyXyXyXyXyXyXyXyXyXyXyXyXyXyXyXyXyXyXyXyXyXyXyXyXyXyXyXyX",
"yXyXyXyXyXyXyXyXyXyXyXyXyXyXyXyXyXyXyXyXyXyXyXyXyXyXyXyXyXyXyXyX"
};
