/* XPM */
static char *result[] = {
/* columns rows colors chars-per-pixel */
"32 32 31 1 ",
"  c #70FF33",
". c #6EFD35",
"X c #6DFC36",
"o c #6FFE34",
"O c #6EFD34",
"+ c #6BFA37",
"@ c #67F73B",
"# c #6BFA38",
"$ c #6DFD35",
"% c #6CFB37",
"& c #67F63B",
"* c #6CFC36",
"= c #6CFB36",
"- c #6EFE34",
"; c #66F53C",
": c #6DFC35",
"> c #68F83A",
", c #69F939",
"< c #68F73B",
"1 c #67F63C",
"2 c #68F73A",
"3 c #64F33E",
"4 c #64F43E",
"5 c #6AF939",
"6 c #69F83A",
"7 c #69F839",
"8 c #6AF938",
"9 c #6AFA38",
"0 c #6BFB37",
"q c #6FFE33",
"w c white",
/* pixels */
"                                ",
"                                ",
"                                ",
".X    o     o   XO    o      o  ",
"X+   o@#   o@#  +$   %&.    X&. ",
"      *.    *.       .=o    o%o ",
"   .     .        oo     o-     ",
"  *;:   *;:       >>     ,<o    ",
"  o.   oo.   oo   oo   . o.   . ",
"      o1X   o;2       %3X    X4+",
"     -o+o  -o#%      ..,o   ..5.",
"O6X o<,   o<,   %7o *;:    :;*  ",
"o8:  .o    .o   X9o o.      .o  ",
"                                ",
"                                ",
" o              o               ",
"=5   o#X   o#X  5X   .#o    .9o ",
" o   o>0   o>0  o    =2o    X2. ",
"                                ",
"  :>.   :>.       88     #5q    ",
"  .5-   .5-       ++     %#     ",
"      q5.   q5#       :>.    .>X",
"       +o    #%       .5-    -5.",
"                                ",
"                                ",
" o              o               ",
"=5   o#X   o#X  5X   .#o    .9o ",
" o   o>0   o>0  o    =2o    X2. ",
"                                ",
"  :>.   :>.       88     #5q    ",
"  .5-   .5-       00     %#     ",
"      q#.   q9%       .5.    .5:"
};
