/* XPM */
static char *_4dfdb345416495798f5d2cea91b88c3jt3DKuPjMZlWOfsT[] = {
/* columns rows colors chars-per-pixel */
"32 32 60 1 ",
"  c #00B7FA",
". c #00B6FA",
"X c #01BCFA",
"o c #05C8FA",
"O c #03CFFA",
"+ c #00D9FA",
"@ c #04CEFA",
"# c #05C7FA",
"$ c #01BAFA",
"% c #00BDFA",
"& c #01C2FA",
"* c #04CCFA",
"= c #03D1FA",
"- c #03D0FA",
"; c #04CBFA",
": c #01C0FA",
"> c #00D7FA",
", c #00D8FA",
"< c #00DAFA",
"1 c #01D7FA",
"2 c #02D3FA",
"3 c #01D0FA",
"4 c #00CCFA",
"5 c #00CDFA",
"6 c #02D2FA",
"7 c #02D4FA",
"8 c #05C9FA",
"9 c #03C0FA",
"0 c #04C4FA",
"q c #05CBFA",
"w c #01D6FA",
"e c #01CCFA",
"r c #00C7FA",
"t c #00C8FA",
"y c #02CEFA",
"u c #02CAFA",
"i c #00C2FA",
"p c #02C9FA",
"a c #01D5FA",
"s c #03C4FA",
"d c #00B8FA",
"f c #03C1FA",
"g c #05CAFA",
"h c #01D4FA",
"j c #00D1FA",
"k c #00D2FA",
"l c #03CEFA",
"z c #01C5FA",
"x c #02CDFA",
"c c #02C7FA",
"v c #00C0FA",
"b c #01C1FA",
"n c #03CAFA",
"m c #04CFFA",
"M c #02C1FA",
"N c #00B9FA",
"B c #03C5FA",
"V c #00D4FA",
"C c #00D3FA",
"Z c white",
/* pixels */
"  .XoO++++++++++++++++++++++@#$.",
"%%%&*=++++++++++++++++++++++-;:%",
">>>>,,++++++++++++++++++++++,,>>",
"++++++++++++++++++++++++++++++++",
"++++++++<<<<<+++++++++++++++++++",
"+++++1234554567,++++++++++++++++",
"+++++289.... 0q1++++++++++++++++",
"+++++w=errrrty6,++++++++++++++++",
"++++++++++++++++++++++++++++++++",
"++++++++++++++++++++++++++++++++",
"++++++++++++++++++++++++++++++++",
"++++++++++++++++++1Ouiiip@a+++++",
"++++++++++++++++++wqsdddfg2+++++",
"++++++++++++++++++,whjjjhw,+++++",
"++++++++++++++++++++++++++++++++",
"++++++++++++++++++++++++++++++++",
"++++++++++++++++++++++++++++++++",
"++++++++++++++++++++++++++++++++",
"+++++++++++1akjjjjka1+++++++++++",
"+++++++++++OoXddddXoO+++++++++++",
"+++++++++++6lziiiizl6+++++++++++",
"++++++++++++++++++++++++++++++++",
"++++++++++++++++++++++++++++++++",
"++++++++++++++++++++++++++++++++",
"+++++w=erx=w++++++++++++++++++++",
"+++++289.f87++++++++++++++++++++",
"+++++1234321++++++++++++++++++++",
"++++++++<+++++++++++++++,,,,++++",
"++++++++++++++++++++++7@cvbbnm1+",
"++++++++++++++++++++++2gMdNNBqw+",
"++++++++++++++++++++++,wVCCCaw,+",
"++++++++++++++++++++++++++++++++"
};
